<?xml version="1.0" standalone="no"?>
<!DOCTYPE svg PUBLIC "-//W3C//DTD SVG 20010904//EN"
 "http://www.w3.org/TR/2001/REC-SVG-20010904/DTD/svg10.dtd">
<svg version="1.0" xmlns="http://www.w3.org/2000/svg"
 width="700.000000pt" height="700.000000pt" viewBox="0 0 700.000000 700.000000"
 preserveAspectRatio="xMidYMid meet">
<metadata>
Created by potrace 1.14, written by Peter Selinger 2001-2017
</metadata>
<g transform="translate(0.000000,700.000000) scale(0.100000,-0.100000)"
fill="#000000" stroke="none">
<path d="M3615 6946 c-68 -31 -118 -122 -114 -205 1 -26 0 -52 -4 -57 -4 -7
-87 -10 -221 -10 -119 1 -216 -3 -216 -7 0 -5 -4 -6 -9 -3 -5 3 -20 -3 -34
-14 -24 -19 -37 -49 -45 -105 -1 -7 -134 -10 -393 -10 -215 1 -393 -3 -395 -7
-3 -4 -14 -8 -25 -8 -10 0 -19 -5 -19 -12 0 -6 -3 -8 -6 -5 -8 8 -60 -47 -82
-87 -14 -27 -17 -75 -18 -361 -1 -181 -3 -337 -3 -346 -1 -14 -21 -16 -153
-14 -154 1 -182 -4 -228 -38 -58 -44 -55 61 -55 -1681 l1 -1596 -201 -1 c-110
0 -388 -1 -618 -1 l-417 0 -1 -42 c-4 -331 1 -2039 6 -2044 4 -4 1417 -7 3141
-8 2833 0 3134 1 3135 15 1 17 0 2021 0 2057 l-1 22 -602 0 c-332 0 -610 1
-619 1 -20 1 -31 35 -17 49 6 6 7 16 2 23 -10 17 -12 59 -2 65 5 3 5 10 1 17
-9 16 -10 58 -1 63 5 3 4 13 -1 23 -5 9 -6 23 -1 31 4 7 4 23 0 35 -5 14 -4
27 3 34 8 8 8 11 0 11 -8 0 -9 9 -3 30 5 16 5 32 0 35 -4 3 -4 21 0 40 4 19 4
37 -1 40 -4 3 -6 12 -3 19 8 20 10 96 3 96 -8 0 -5 32 5 48 4 6 3 12 -3 12 -6
0 -6 11 -1 30 5 17 5 32 0 35 -5 3 -5 16 0 30 5 13 6 26 2 29 -9 5 -8 53 1 62
3 4 2 14 -3 23 -5 10 -5 23 0 31 4 7 4 23 0 35 -5 14 -4 27 3 34 8 8 8 11 0
11 -8 0 -9 9 -3 30 5 16 5 32 0 35 -4 3 -4 21 0 40 4 19 4 37 -1 40 -4 3 -6
12 -3 19 8 20 10 96 3 96 -8 0 -5 32 5 48 4 6 3 12 -3 12 -6 0 -6 11 -1 30 5
17 5 32 0 35 -5 3 -5 16 0 30 5 13 6 26 2 29 -9 5 -8 53 1 62 3 4 2 14 -3 23
-5 10 -5 23 0 31 4 7 4 23 0 35 -5 14 -4 27 3 34 8 8 8 11 0 11 -8 0 -9 9 -3
30 5 16 5 32 0 35 -4 3 -4 21 0 40 4 19 4 37 -1 40 -4 3 -6 12 -3 19 8 20 10
96 3 96 -8 0 -5 32 5 48 4 6 3 12 -3 12 -6 0 -6 11 -1 30 5 17 5 32 0 35 -5 3
-5 16 0 30 5 13 6 26 2 29 -9 5 -8 53 1 62 3 4 2 14 -3 23 -5 10 -5 23 0 31 4
7 4 23 0 35 -5 14 -4 27 3 34 8 8 8 11 0 11 -8 0 -9 9 -3 30 5 16 5 32 0 35
-4 3 -4 21 0 40 4 19 4 37 -1 40 -4 3 -6 12 -3 19 8 20 10 96 3 96 -8 0 -5 32
5 48 4 6 3 12 -3 12 -6 0 -6 11 -1 30 5 17 5 32 0 35 -6 3 -5 16 0 29 5 13 6
27 3 30 -10 9 -10 57 -1 62 5 3 4 13 -1 23 -5 9 -6 23 -1 31 4 7 4 23 0 35 -5
14 -4 27 3 34 8 8 8 11 0 11 -8 0 -9 9 -3 30 5 16 5 32 0 35 -4 3 -4 21 0 40
4 19 4 37 -1 40 -4 3 -6 12 -3 19 8 20 10 96 3 96 -8 0 -5 32 5 48 4 6 3 12
-3 12 -6 0 -6 11 -1 30 5 17 5 32 0 35 -5 3 -5 16 0 30 5 13 6 26 2 29 -9 5
-8 53 1 62 3 4 2 14 -3 23 -5 10 -5 23 0 31 4 7 4 23 0 35 -5 14 -4 27 3 34 8
8 8 11 0 11 -8 0 -9 9 -3 30 5 16 5 32 0 35 -4 3 -4 21 0 40 4 19 4 37 -1 40
-4 3 -6 12 -3 19 8 20 10 96 3 96 -8 0 -5 32 5 48 4 6 3 12 -3 12 -6 0 -6 11
-1 29 5 19 4 33 -3 41 -9 10 -9 11 2 5 10 -5 12 -4 7 4 -4 6 -9 24 -12 39 -5
32 -35 92 -46 92 -5 0 -8 6 -8 13 0 6 -23 23 -51 37 l-50 25 -387 0 -386 0 -8
41 c-10 46 -41 81 -84 92 -16 4 -135 7 -265 7 l-236 -1 -6 77 c-5 84 -29 137
-79 177 -36 30 -128 39 -173 18z"/>
</g>
</svg>
